# xmcd
#
# Track frame offsets: 
#        150
#        10342
#        22692
#        48407
#        62807
#        75970
#        96457
#        111987
#        129200
#        143452
#        154065
#        164685
#        176300
#        187507
#        199755
#        213075
#        236020
#
# Disc length: 3608 seconds
#
# Revision: 0
# Processed by: cddbd v1.5.2PL0 Copyright (c) Steve Scherf et al.
# Submitted via: ExactAudioCopyFreeDBPlugin 1.0
#
DISCID=cd0e1611
DTITLE=Creedence Clearwater Revival - Keep On Chooglin'
DYEAR=1900
DGENRE=Country
TTITLE0=Hello Mary Lou
TTITLE1=Good Golly Miss Molly
TTITLE2=Born To Move
TTITLE3=Lodi
TTITLE4=It Came Out Of The Sky
TTITLE5=I Put A Spell On You
TTITLE6=Before You Accuse Me
TTITLE7=Sailor's Lament
TTITLE8=Night Time Is The Right Time
TTITLE9=Fortunate Son
TTITLE10=Bad Moon Risong
TTITLE11=Green River
TTITLE12=Who'll Stop The Rain
TTITLE13=Up Around The Bend
TTITLE14=Cotton Fields
TTITLE15=Feelin' Blue
TTITLE16=Keep On Chooglin'
EXTD=
EXTT0=
EXTT1=
EXTT2=
EXTT3=
EXTT4=
EXTT5=
EXTT6=
EXTT7=
EXTT8=
EXTT9=
EXTT10=
EXTT11=
EXTT12=
EXTT13=
EXTT14=
EXTT15=
EXTT16=
PLAYORDER=
